<svg xmlns="http://www.w3.org/2000/svg" version="1.1" xmlns:xlink="http://www.w3.org/1999/xlink" xmlns:svgjs="http://svgjs.dev/svgjs" width="1000" height="1000" viewBox="0 0 1000 1000"><rect width="1000" height="1000" fill="#ffffff"></rect><g transform="matrix(0.7,0,0,0.7,149.37769547325098,144.6884669295548)"><svg viewBox="0 0 243 247" data-background-color="#f9f9f9" preserveAspectRatio="xMidYMid meet" height="1016" width="1000" xmlns="http://www.w3.org/2000/svg" xmlns:xlink="http://www.w3.org/1999/xlink"><g id="tight-bounds" transform="matrix(1,0,0,1,0.21602857142858056,-0.09997365579206985)"><svg viewBox="0 0 242.56794285714287 247.2" height="247.2" width="242.56794285714287"><g><svg viewBox="0 0 242.56794285714287 247.2" height="247.2" width="242.56794285714287"><g><svg viewBox="0 0 242.56794285714287 247.2" height="247.2" width="242.56794285714287"><g id="textblocktransform"><svg viewBox="0 0 242.56794285714287 247.2" height="247.2" width="242.56794285714287" id="textblock"><g><svg viewBox="0 0 242.56794285714287 247.2" height="247.2" width="242.56794285714287"><path d="M242 53.02C240.86 27.36 237.61 20.227 237.61 20.227 227.631-6.202 215.179-0.506 203.992 3.292 184.241 3.446 164.569 9.091 144.864 12.119 103.503 12.581 61.788 4.986 20.633 23.717 16.767 29.464-4.011 24.846 0.688 56.304 1.919 69.39 6.412 83.913 6.275 95.922 6.891 98.026 7.746 93.202 8.111 96.23 9.389 104.39 11.475 100.541 13.186 105.365 10.803 118.246 12.513 128.971 14.144 140.21 11.27 143.135 7.587 141.749 5.933 151.449 5.762 158.479 4.839 157.145 3.824 156.837 3.082 156.632 1.589 157.402 1.839 159.608 2.695 167.152-0.977 171.514 1.326 178.904-0.259 186.91 2.421 193.838 2.056 202.511 2.01 204.255 2.261 205.744 2.66 206.154 4.428 208.361 1.851 212.672 2.124 217.342 20.256 249.262 39.928 227.195 58.504 241.872 63.328 231.608 59.701 245.516 61.629 243.36 63.134 240.846 64.229 251.263 65.928 245.362 66.19 243.668 65.791 239.665 66.726 240.435 67.216 240.846 67.65 240.743 67.718 238.382 67.821 234.841 66.92 237.048 66.68 235.201 69.269 225.861 68.631 248.081 71.059 247.158 70.945 244.438 70.238 240.538 71.687 241.051 73.124 237.151 73.169 233.918 74.446 242.693 74.492 244.592 74.72 245.926 75.085 246.85 79.076 237.305 83.045 250.237 87.23 245.926 89.796 241.205 92.259 248.492 94.859 246.696 95.771 245.259 96.695 242.693 97.573 247.004 108.327 247.928 119.787 244.079 129.982 247.158 157.225 241.41 186.339 249.518 215.065 241.923 221.838 238.998 228.874 234.841 235.477 231.506 235.477 231.506 240.825 222.371 240.825 181.316S241.966 145.393 242.137 112.703C242.308 80.013 243.106 78.679 241.966 53.02Z" opacity="1" fill="#000000" data-fill-palette-color="tertiary"></path><g transform="matrix(1,0,0,1,55.76832,26.230666666666668)"><svg width="131.03130285714286" viewBox="3.299999952316284 -35 23.55000114440918 35" height="194.73866666666666" data-palette-color="#f9f9f9"><path d="M3.3 0L3.3-35 8.45-35 22.3-9.4 22.3-35 26.85-35 26.85 0 22.6 0 7.85-27.05 7.85 0 3.3 0Z" opacity="1" transform="matrix(1,0,0,1,0,0)" fill="#ffffff" class="undefined-text-0" data-fill-palette-color="quaternary" id="text-0"></path></svg></g></svg></g></svg></g></svg></g><g></g></svg></g><defs></defs></svg><rect width="242.56794285714287" height="247.2" fill="none" stroke="none" visibility="hidden"></rect></g></svg></g></svg>